#!OML:ASF X:\für Bonn\!DataBase\2005_08_12_Daniel\c3d\Daniel.ASF
:FULLY-SPECIFIED
:DEGREES
1422
root 4.24871 17.2606 -15.0949 -11.2109 157.779 -8.06162
lowerback 12.9276 -0.772243 -6.05679
upperback 1.91193 -1.73597 -2.89407
thorax -5.13429 -0.638104 0.653426
lowerneck -0.505036 -1.97379 -8.58709
upperneck 14.9683 -2.26374 5.04145
head 4.72879 -1.04327 2.90878
rclavicle 5.74985e-014 -1.96797e-014
rhumerus -41.4158 -18.7258 -74.3842
rradius 12.9854
rwrist 33.8281
rhand -15.1961 15.3101
rfingers 7.12502
rthumb 10.9756 -14.383
lclavicle 5.74985e-014 -1.96797e-014
lhumerus -33.1135 34.8722 68.5027
lradius 21.8652
lwrist -25.8906
lhand -15.6607 -4.9656
lfingers 7.12502
lthumb 10.5275 24.7508
rfemur -16.2726 -2.89776 17.1932
rtibia 73.9852
rfoot -1.26449 6.45162
rtoes -4.39706
lfemur -10.194 -3.27038 -26.3168
ltibia 42.9618
lfoot -22.1839 -6.83898
ltoes -10.6299
1423
root 4.31487 17.2806 -15.249 -11.2734 157.601 -7.9693
lowerback 12.9733 -0.882229 -6.01526
upperback 1.94886 -1.8765 -2.79583
thorax -5.11092 -0.710177 0.757891
lowerneck -0.520709 -1.92108 -8.63772
upperneck 15.0104 -2.17714 4.95692
head 4.73884 -1.00817 2.89481
rclavicle -4.78698e-014 4.69132e-014
rhumerus -41.7409 -18.8639 -74.0141
rradius 13.1818
rwrist 32.3804
rhand -15.6801 15.2869
rfingers 7.12502
rthumb 10.5088 -14.4304
lclavicle -4.78698e-014 4.69132e-014
lhumerus -32.2096 33.2449 70.0566
lradius 22.71
lwrist -24.1365
lhand -15.6058 -5.2021
lfingers 7.12502
lthumb 10.5804 24.5116
rfemur -17.3689 -3.04039 17.4211
rtibia 73.2068
rfoot -2.1452 6.86512
rtoes -4.9342
lfemur -9.22625 -3.35029 -26.2841
ltibia 42.6113
lfoot -22.4674 -6.58655
ltoes -10.9965
1424
root 4.38294 17.3015 -15.4022 -11.2967 157.445 -7.87395
lowerback 12.9341 -0.990766 -5.92133
upperback 1.99934 -2.00053 -2.74528
thorax -5.0305 -0.776327 0.778296
lowerneck -0.511841 -1.87964 -8.74406
upperneck 15.0429 -2.12276 5.01028
head 4.74529 -0.984471 2.93202
rclavicle 5.60821e-014 -1.0138e-014
rhumerus -42.1437 -19.3001 -73.5034
rradius 13.4445
rwrist 31.3169
rhand -16.0454 15.2244
rfingers 7.12502
rthumb 10.1564 -14.5104
lclavicle 5.60821e-014 -1.0138e-014
lhumerus -31.3361 31.639 71.4373
lradius 23.5363
lwrist -22.6026
lhand -15.5281 -5.4776
lfingers 7.12502
lthumb 10.6554 24.2322
rfemur -18.4324 -3.21023 17.6571
rtibia 72.2422
rfoot -3.10653 7.25345
rtoes -5.81847
lfemur -8.30052 -3.39843 -26.2446
ltibia 42.2681
lfoot -22.6533 -6.35845
ltoes -11.1867
1425
root 4.44974 17.3212 -15.5545 -11.2745 157.296 -7.74923
lowerback 12.8559 -1.1021 -5.7321
upperback 2.04355 -2.11469 -2.70407
thorax -4.94007 -0.840177 0.73294
lowerneck -0.457673 -1.84554 -8.94443
upperneck 15.0562 -2.08866 5.15632
head 4.74126 -0.97086 3.01315
rclavicle -8.53532e-015 7.35503e-015
rhumerus -42.6712 -20.1211 -72.6849
rradius 13.7233
rwrist 30.753
rhand -16.2726 15.3289
rfingers 7.12502
rthumb 9.93719 -14.4166
lclavicle -8.53532e-015 7.35503e-015
lhumerus -30.5316 30.0957 72.6942
lradius 24.3454
lwrist -21.2069
lhand -15.4138 -5.67419
lfingers 7.12502
lthumb 10.7656 24.0299
rfemur -19.4313 -3.32294 17.9284
rtibia 71.0971
rfoot -4.03447 7.54112
rtoes -6.3364
lfemur -7.42107 -3.49098 -26.1858
ltibia 41.924
lfoot -22.8453 -6.1246
ltoes -11.3695
1426
root 4.51743 17.3368 -15.7062 -11.2506 157.151 -7.63047
lowerback 12.7851 -1.20399 -5.58952
upperback 2.07685 -2.22425 -2.63447
thorax -4.86307 -0.900782 0.742578
lowerneck -0.357118 -1.81989 -9.09698
upperneck 15.022 -2.06205 5.21766
head 4.71441 -0.963521 3.05913
rclavicle 6.21078e-014 4.07509e-014
rhumerus -43.2262 -20.6002 -72.0226
rradius 14.1495
rwrist 29.9171
rhand -16.4089 15.4106
rfingers 7.12502
rthumb 9.80571 -14.3411
lclavicle 6.21078e-014 4.07509e-014
lhumerus -29.816 28.7423 73.8249
lradius 25.1136
lwrist -19.9712
lhand -15.2461 -5.93222
lfingers 7.12502
lthumb 10.9274 23.7634
rfemur -20.342 -3.41578 18.1845
rtibia 69.7612
rfoot -4.85999 7.68569
rtoes -6.44299
lfemur -6.53139 -3.65117 -26.1527
ltibia 41.5424
lfoot -22.9977 -5.8218
ltoes -11.5734
1427
root 4.58538 17.356 -15.8587 -11.2073 156.988 -7.5142
lowerback 12.7063 -1.31031 -5.44464
upperback 2.11031 -2.33914 -2.56673
thorax -4.78162 -0.96408 0.749218
lowerneck -0.346542 -1.7899 -9.25325
upperneck 15.0202 -2.02677 5.29742
head 4.71198 -0.951295 3.11167
rclavicle 2.24673e-014 -7.40473e-015
rhumerus -43.6989 -20.8505 -71.5577
rradius 14.6581
rwrist 28.8463
rhand -16.4105 15.4647
rfingers 7.12502
rthumb 9.80413 -14.2871
lclavicle 2.24673e-014 -7.40473e-015
lhumerus -29.1312 27.3976 74.8814
lradius 25.878
lwrist -18.7249
lhand -15.1144 -6.09558
lfingers 7.12502
lthumb 11.0544 23.5933
rfemur -21.1526 -3.47281 18.4335
rtibia 68.2164
rfoot -5.65506 7.63729
rtoes -6.67333
lfemur -5.60226 -3.78159 -26.1291
ltibia 41.0668
lfoot -23.1679 -5.46971
ltoes -12.0124
